# xmcd
#
# Track frame offsets:
#	150
#	10622
#	32022
#	40410
#	63305
#	83075
#	92920
#	111627
#	127425
#
# Disc length: 1799 seconds
#
# Revision: 1
# Processed by: cddbd v1.5.1PL0 Copyright (c) Steve Scherf et al.
# Submitted via: CDex 1.50Beta5
#
DISCID=79070509
DTITLE=circus - めですのきもち
DYEAR=1900
DGENRE=Other
TTITLE0=アルキメデスの受難〜その1〜「灼熱編」1
TTITLE1=アルキメデスの受難〜その1〜「灼熱編」2
TTITLE2=アルキメデスの受難〜その1〜「灼熱編」3
TTITLE3=アルキメデスの受難〜その1〜「灼熱編」4
TTITLE4=アルキメデスの受難〜その1〜「灼熱編」5
TTITLE5=アルキメデスの受難〜その2〜「清流編」1
TTITLE6=アルキメデスの受難〜その2〜「清流編」2
TTITLE7=アルキメデスの受難〜その2〜「清流編」3
TTITLE8=アルキメデスの受難〜その2〜「清流編」4
EXTD=
EXTT0=
EXTT1=
EXTT2=
EXTT3=
EXTT4=
EXTT5=
EXTT6=
EXTT7=
EXTT8=
PLAYORDER=
